<?xml version="1.0" encoding="UTF-8"?>
<svg id="Layer_1" xmlns="http://www.w3.org/2000/svg" version="1.1" viewBox="0 0 516 200">
  <!-- Generator: Adobe Illustrator 29.8.4, SVG Export Plug-In . SVG Version: 2.1.1 Build 6)  -->
  <defs>
    <style>
      .st0 {
        fill: #1e1e1c;
      }
    </style>
  </defs>
  <g>
    <path class="st0" d="M242.62,57.66c16.52,0,28.18,7.29,39.03,18.62l-14.74,11.66c-6.15-7.29-14.25-13.77-24.94-13.77-7.61,0-11.82,3.24-11.82,8.1,0,5.83,5.99,7.29,14.41,8.26l2.75.32c25.75,3.08,35.3,9.72,35.3,24.45,0,15.71-14.74,27.21-36.11,27.21s-34.49-11.34-41.94-22.67l16.19-10.2c5.02,10.53,15.87,16.03,26.23,16.03,8.26,0,15.87-3.56,15.87-9.88,0-5.99-8.26-7.12-17-8.1l-2.75-.32c-22.51-2.59-32.71-9.88-32.71-24.78s13.6-24.94,32.23-24.94Z"/>
    <path class="st0" d="M317.76,57.66c23.32,0,39.03,16.36,39.03,40.49v7.94h-58.46c.81,10.69,8.42,18.95,20.08,18.95s17.33-6.32,20.08-11.98l16.68,9.72c-5.51,8.42-14.9,19.76-36.44,19.76-23.97,0-41.29-18.14-41.29-43.08s16.68-41.78,40.32-41.78ZM336.06,91.83c-1.46-10.2-7.94-16.68-18.46-16.68-11.5,0-17.49,6.8-19.11,16.68h37.57Z"/>
    <path class="st0" d="M376.87,140.25h-20.4V26.89h20.4v113.36Z"/>
    <path class="st0" d="M395.98,59.93v-16.52c0-9.39,6.8-16.52,16.19-16.52h21.05v17.49h-12.31c-2.92,0-4.54,1.62-4.54,4.86v10.69h21.05v17.49h-21.05v62.83h-20.4v-62.83h-20.4v-17.49h20.4Z"/>
    <path class="st0" d="M515.81,59.93l-44.05,112.71h-22.02l11.34-27.21-33.36-85.51h22.02l21.05,57.65h1.94l21.05-57.65h22.02Z"/>
  </g>
  <path class="st0" d="M144.55,123.73c.09-.1.18-.21.27-.31.29-.33.58-.66.86-1,.19-.23.37-.47.56-.71.17-.21.34-.43.5-.64.22-.29.43-.6.64-.9.12-.17.24-.34.36-.51.21-.32.42-.64.62-.96.1-.17.21-.33.31-.49.18-.3.36-.61.53-.92.11-.2.23-.4.34-.6.14-.26.27-.52.4-.78.14-.27.28-.53.41-.8.08-.18.16-.36.24-.54.17-.36.33-.73.49-1.1.03-.07.05-.14.08-.21,1.71-4.17,2.66-8.72,2.66-13.49s-.95-9.32-2.65-13.48c-.03-.08-.06-.15-.09-.23-.15-.36-.32-.72-.48-1.08-.08-.19-.16-.37-.25-.56-.13-.26-.26-.52-.39-.78-.14-.27-.27-.53-.41-.8-.1-.19-.22-.38-.32-.57-.18-.32-.36-.63-.54-.95-.1-.16-.2-.31-.3-.47-.21-.33-.42-.66-.63-.99-.11-.16-.22-.31-.33-.47-.22-.31-.44-.63-.66-.93-.15-.2-.31-.4-.46-.59-.2-.25-.39-.51-.6-.76-.25-.31-.52-.61-.78-.91-.12-.13-.23-.27-.35-.4-.39-.43-.8-.86-1.21-1.27,0,0,0,0,0,0-.09-.09-.18-.17-.27-.26-.32-.31-.64-.62-.97-.93-4.33-3.94-9.47-6.71-15.03-8.14-.01,0-.03,0-.04-.01-.49-.13-.98-.24-1.47-.34-.1-.02-.19-.04-.29-.06-.41-.08-.83-.15-1.24-.22-.18-.03-.36-.07-.54-.09-.34-.05-.68-.09-1.03-.13-.25-.03-.51-.07-.76-.09-.05,0-.11,0-.16-.01l3.75-3.75c6.74-6.74,10.46-15.71,10.46-25.24s-3.71-18.5-10.46-25.24C118.53,3.26,109.57-.46,100.04-.46s-18.5,3.71-25.24,10.46L10.27,74.52C4.41,80.38.84,87.93,0,96.07c0,.02,0,.04,0,.06-.05.52-.09,1.03-.12,1.55,0,.09-.02.18-.02.27-.03.6-.05,1.21-.05,1.82s.02,1.21.05,1.82c0,.09.01.18.02.27.03.52.07,1.04.12,1.55,0,.02,0,.04,0,.06.83,8.14,4.4,15.68,10.26,21.54s13.4,9.43,21.54,10.26c.02,0,.04,0,.06,0,.07,0,.13.01.2.02l-3.75,3.75c-6.74,6.74-10.46,15.71-10.46,25.24s3.71,18.5,10.46,25.24,15.71,10.46,25.24,10.46,18.5-3.71,25.24-10.46l64.52-64.52s0,0,0,0c.42-.42.82-.84,1.22-1.28ZM118.12,122.46h-54.82l38.79-38.79c4.28-4.26,9.96-6.61,16.01-6.61.75,0,1.49.04,2.22.11.02,0,.03,0,.05,0,.71.07,1.41.18,2.11.31.04,0,.08.01.13.02.66.13,1.32.3,1.96.49.07.02.14.04.22.06.62.19,1.23.41,1.83.65.09.04.18.07.27.11.59.25,1.17.52,1.74.82.08.04.17.08.25.13.59.32,1.17.67,1.73,1.04.04.03.09.05.13.08,1.22.82,2.37,1.76,3.43,2.82,4.29,4.29,6.65,9.99,6.65,16.05s-2.36,11.76-6.65,16.05l-.2.2c-4.09,3.99-9.68,6.45-15.83,6.45ZM33.36,122.36s-.1,0-.14-.01c-.65-.07-1.3-.17-1.94-.29-.11-.02-.22-.04-.33-.06-.57-.12-1.14-.26-1.7-.43-.21-.06-.41-.12-.62-.18-.46-.15-.92-.31-1.37-.49-.29-.11-.58-.23-.87-.36-.37-.16-.73-.33-1.08-.51-.32-.16-.64-.33-.96-.51-.32-.18-.64-.38-.96-.58-.3-.19-.59-.39-.88-.59-.33-.23-.66-.48-.98-.73-.25-.19-.49-.39-.73-.59-.35-.3-.69-.61-1.03-.93-.2-.2-.41-.4-.6-.6-.32-.33-.63-.68-.93-1.03-.2-.24-.4-.48-.59-.73-.25-.32-.49-.65-.73-.98-.2-.29-.4-.58-.59-.88-.2-.32-.39-.64-.58-.96-.18-.31-.35-.63-.51-.96-.18-.36-.35-.72-.51-1.08-.13-.29-.24-.57-.36-.87-.18-.45-.34-.91-.49-1.37-.07-.2-.12-.41-.18-.62-.16-.56-.31-1.13-.43-1.7-.02-.11-.04-.22-.06-.33-.12-.64-.22-1.29-.29-1.94,0-.05,0-.09-.01-.14-.07-.71-.1-1.43-.1-2.15s.04-1.44.1-2.15c0-.05,0-.1.01-.14.07-.65.17-1.3.29-1.94.02-.11.04-.22.06-.33.12-.57.26-1.14.42-1.7.06-.21.12-.41.18-.62.15-.46.31-.91.49-1.36.11-.29.23-.58.36-.87.16-.36.33-.72.51-1.08.16-.33.34-.65.52-.96.18-.32.37-.64.57-.95.19-.3.39-.6.59-.89.23-.33.47-.66.72-.97.19-.25.39-.49.6-.73.3-.35.61-.69.93-1.03,4.13-4.29,9.93-6.97,16.34-6.97h54.79l-38.79,38.79c-4.28,4.26-9.96,6.61-16,6.61-.72,0-1.44-.04-2.15-.1ZM83.99,19.19c4.29-4.29,9.99-6.65,16.05-6.65s11.76,2.36,16.05,6.65c4.29,4.29,6.65,9.99,6.65,16.05s-2.36,11.76-6.65,16.05l-12.78,12.78H39.11l44.87-44.87ZM69.62,180.34c-4.29,4.29-9.99,6.65-16.05,6.65s-11.76-2.36-16.05-6.65-6.65-9.99-6.65-16.05,2.36-11.76,6.65-16.05l12.78-12.78h64.2l-44.87,44.87Z"/>
</svg>